<svg xmlns="http://www.w3.org/2000/svg" width="187" height="60" viewBox="0 0 500 180" version="1.1"><path d="M 348.324 65.383 C 342.534 67.272, 337.816 70.354, 333.640 74.977 C 319.784 90.313, 321.836 114.075, 338.086 126.468 C 344.662 131.483, 350.164 133.237, 359.500 133.297 C 373.475 133.386, 384.920 126.795, 391.538 114.848 C 394.293 109.873, 394.500 108.767, 394.500 99 C 394.500 90.041, 394.161 87.819, 392.193 83.864 C 388.647 76.735, 383.765 71.688, 376.826 67.975 C 371.187 64.958, 369.523 64.560, 361.500 64.306 C 355.860 64.127, 350.941 64.530, 348.324 65.383 M 217.667 65.667 C 217.300 66.033, 217 81.108, 217 99.167 L 217 132 226 132 L 235 132 235 119.500 L 235 107 244.500 107 L 254 107 254 99 L 254 91 244.500 91 L 235 91 235 86 L 235 81 245 81 L 255 81 255 73 L 255 65 236.667 65 C 226.583 65, 218.033 65.300, 217.667 65.667 M 261 98.500 L 261 132 270 132 L 279 132 279 119 L 279 106 289.500 106 L 300 106 300 119 L 300 132 309 132 L 318 132 318 98.500 L 318 65 309 65 L 300 65 300 77.500 L 300 90 289.500 90 L 279 90 279 77.500 L 279 65 270 65 L 261 65 261 98.500 M 402 98.401 L 402 132 410.500 132 L 419 132 419 122.144 L 419 112.288 426.892 111.629 C 436.143 110.858, 440.291 109.622, 444.759 106.304 C 450.090 102.346, 452.450 96.725, 452.477 87.922 C 452.497 81.219, 452.152 79.781, 449.491 75.476 C 447.355 72.021, 445.043 69.869, 441.520 68.055 C 436.865 65.658, 435.488 65.478, 419.279 65.151 L 402 64.802 402 98.401 M 457 98.500 L 457 132 476 132 L 495 132 495 124.500 L 495 117 485 117 L 475 117 475 111.536 L 475 106.072 484.750 105.786 L 494.500 105.500 494.500 98 L 494.500 90.500 484.750 90.214 L 475 89.928 475 85.464 L 475 81 485 81 L 495 81 495 73 L 495 65 476 65 L 457 65 457 98.500 M 351.500 81.861 C 338.493 89.895, 339.070 109.499, 352.506 116.003 C 366.287 122.674, 380.476 110.011, 376.933 94.203 C 375.714 88.761, 372.097 83.619, 367.998 81.499 C 363.906 79.383, 355.203 79.573, 351.500 81.861 M 419 88.637 L 419 96.274 425.711 95.735 C 431.029 95.308, 432.794 94.738, 434.211 92.987 C 436.694 89.921, 436.445 86.354, 433.545 83.455 C 431.481 81.390, 430.131 81, 425.045 81 L 419 81 419 88.637" stroke="none" fill="#fcfbf4" fill-rule="evenodd"/><path d="M 70 14.354 C 41.125 22.229, 15.210 29.433, 12.411 30.363 C 7.402 32.027, 3.328 35.392, 1.122 39.684 C 0.326 41.234, 0 61.144, 0 108.260 L 0 174.651 2.549 177.046 C 4.602 178.975, 6.399 179.508, 11.799 179.790 C 17.888 180.107, 24.517 178.531, 84.376 162.530 C 120.608 152.845, 151.492 144.280, 153.007 143.496 C 156.408 141.737, 160.857 136.565, 162.652 132.282 C 163.724 129.724, 164 118.519, 164 77.609 L 164 26.153 161.411 23.077 C 159.310 20.580, 158.064 20, 154.799 20 C 152.586 20, 133.478 24.725, 112.335 30.500 C 91.193 36.275, 73.693 41, 73.447 41 C 73.201 41, 73 57.650, 73 78 C 73 98.350, 72.763 115, 72.474 115 C 72.185 115, 68.247 112.513, 63.724 109.473 L 55.500 103.945 52 107.735 C 50.075 109.820, 46.154 114.220, 43.286 117.513 L 38.072 123.500 38.036 86.827 L 38 50.154 30.460 50.725 C 22.048 51.361, 18.929 50.335, 17.106 46.333 C 15.793 43.451, 16.905 40.742, 20.285 38.590 C 21.503 37.814, 47.925 30.380, 79 22.070 C 110.075 13.759, 136.147 6.725, 136.937 6.439 C 138.045 6.038, 137.774 5.319, 135.752 3.297 C 130.560 -1.895, 128.002 -1.465, 70 14.354" stroke="none" fill="#fc5434" fill-rule="evenodd"/></svg>